<?xml version="1.0" encoding="utf-8"?>
<!-- Generator: Adobe Illustrator 16.0.0, SVG Export Plug-In . SVG Version: 6.00 Build 0)  -->
<!DOCTYPE svg PUBLIC "-//W3C//DTD SVG 1.1 Tiny//EN" "http://www.w3.org/Graphics/SVG/1.1/DTD/svg11-tiny.dtd">
<svg version="1.1" baseProfile="tiny" id="Layer_1" xmlns="http://www.w3.org/2000/svg" xmlns:xlink="http://www.w3.org/1999/xlink"
	 x="0px" y="0px" width="33.761719px" height="32.962891px" viewBox="0 0 33.761719 32.962891" xml:space="preserve">
<g>
	<path d="M3.231445,10.200684C3.166992,9.785645,3.108398,9.465332,3.057617,9.240723
		C3.022461,9.099121,2.90918,8.696777,2.71875,8.032715l0.400391-0.154297C3.426758,8.69873,3.779297,9.254395,4.177734,9.544434
		C4.576172,9.835449,5.095703,9.97998,5.734375,9.97998c0.469727,0,0.864258-0.091797,1.183594-0.277344
		c0.320312-0.185547,0.580078-0.481445,0.78125-0.886719C7.899414,8.410645,8,7.95459,8,7.446777
		c0-0.678711-0.173828-1.200195-0.519531-1.564453c-0.347656-0.363281-0.8125-0.544922-1.398438-0.544922
		c-0.195312,0-0.376953,0.019531-0.544922,0.058594s-0.417969,0.126953-0.75,0.263672L4.699219,5.585449l0.160156-0.797852
		C5.25,4.812012,5.511719,4.82373,5.642578,4.82373c0.595703,0,1.054688-0.208008,1.378906-0.625977
		C7.34668,3.780762,7.508789,3.308105,7.508789,2.780762c0-0.473633-0.171875-0.875977-0.516602-1.208984
		C6.648438,1.240723,6.212891,1.07373,5.686523,1.07373c-0.317383,0-0.62207,0.064453-0.915039,0.191406
		S4.220703,1.562988,3.996094,1.776855C3.908203,1.963379,3.769531,2.312012,3.579102,2.824707H3.125l0.450195-1.757812
		C3.902344,0.725098,4.209961,0.48584,4.498047,0.349121C4.97168,0.134277,5.489258,0.026855,6.050781,0.026855
		c0.826172,0,1.478516,0.217773,1.958984,0.652344C8.491211,1.11377,8.732422,1.641113,8.732422,2.26123
		c0,0.419922-0.125,0.833008-0.373047,1.241211C8.111328,3.909668,7.69043,4.325684,7.097656,4.751465
		C7.647461,4.82373,8.082031,4.949707,8.400391,5.128418c0.320312,0.177734,0.564453,0.429688,0.734375,0.753906
		c0.170898,0.325195,0.255859,0.6875,0.255859,1.087891c0,0.581055-0.182617,1.152344-0.548828,1.713867
		s-0.880859,1.025391-1.544922,1.391602s-1.384766,0.548828-2.161133,0.548828c-0.341797,0-0.654297-0.03125-0.9375-0.094727
		S3.592773,10.356934,3.231445,10.200684z"/>
	<g>
		<path d="M15.960938,21.40625l0.65625-0.100586l0.361328,0.919922c0.068359,0.166992,0.427734,0.297852,0.921875,0.297852
			c0.919922,0,2.040039-1.052734,3.452148-3.255859l1.314453-2.036133l-0.361328-2.040039
			c-0.560547-3.222656-1.282227-4.568359-2.365234-4.568359c-0.62793,0-1.283203,0.460938-2.271484,1.575195l-0.556641-0.325195
			l1.90625-2.730469c0.293945-0.428711,1.020508-0.691406,1.875-0.691406c1.9375,0,2.825195,1.183594,3.21875,4.4375
			l0.198242,1.581055l1.216797-1.810547c2.038086-3.024414,3.353516-4.208008,4.667969-4.208008
			c0.296875,0,0.594727,0.102539,0.987305,0.332031l-0.492188,2.792969l-0.459961,0.129883
			c-0.166992-0.492188-0.560547-0.754883-1.086914-0.754883c-1.017578,0-1.90625,0.754883-3.452148,2.890625l-1.151367,1.612305
			l0.592773,3.319336c0.165039,0.955078,0.527344,2.172852,0.821289,2.792969c0.328125,0.65918,0.757812,0.988281,1.251953,0.988281
			c0.523438,0,1.345703-0.492188,2.532227-1.480469l0.293945,0.625977l-1.612305,1.447266
			c-1.050781,0.951172-2.104492,1.511719-2.828125,1.511719c-1.182617,0-1.94043-1.282227-2.365234-4.077148l-0.361328-2.267578
			l-2.500977,3.84668c-1.016602,1.544922-2.298828,2.498047-3.385742,2.498047c-0.392578,0-0.917969-0.130859-1.412109-0.393555
			C15.697266,23.408203,15.960938,22.554688,15.960938,21.40625z"/>
		<polygon points="33.761719,3.085938 33.761719,3.931641 13.478516,3.931641 7.55957,24.477539 2.351562,13.574219 
			0.244141,14.365234 0,13.953125 3.798828,11.920898 7.689453,20.170898 12.577148,3.085938 		"/>
	</g>
</g>
</svg>
