<?xml version="1.0" encoding="utf-8"?>
<!-- Generator: Adobe Illustrator 16.0.0, SVG Export Plug-In . SVG Version: 6.00 Build 0)  -->
<!DOCTYPE svg PUBLIC "-//W3C//DTD SVG 1.1 Tiny//EN" "http://www.w3.org/Graphics/SVG/1.1/DTD/svg11-tiny.dtd">
<svg version="1.1" baseProfile="tiny" id="Layer_1" xmlns="http://www.w3.org/2000/svg" xmlns:xlink="http://www.w3.org/1999/xlink"
	 x="0px" y="0px" width="24.289062px" height="32.962891px" viewBox="0 0 24.289062 32.962891" xml:space="preserve">
<g>
	<g>
		<path d="M0.396484,21.405762l0.65625-0.099609l0.361328,0.919922c0.066406,0.166016,0.427734,0.296875,0.919922,0.296875
			c0.921875,0,2.040039-1.052734,3.454102-3.255859l1.314453-2.035156l-0.361328-2.041016
			c-0.560547-3.222656-1.28418-4.568359-2.367188-4.568359c-0.625977,0-1.282227,0.460938-2.269531,1.576172l-0.556641-0.326172
			l1.90625-2.730469c0.293945-0.427734,1.018555-0.691406,1.873047-0.691406c1.9375,0,2.826172,1.183594,3.220703,4.4375
			l0.198242,1.582031l1.216797-1.810547c2.038086-3.025391,3.353516-4.208984,4.666016-4.208984
			c0.297852,0,0.594727,0.103516,0.988281,0.332031L15.125,11.575684l-0.460938,0.130859
			c-0.165039-0.492188-0.558594-0.755859-1.084961-0.755859c-1.017578,0-1.90625,0.755859-3.452148,2.890625L8.975586,15.45459
			l0.59082,3.318359c0.166992,0.955078,0.527344,2.173828,0.823242,2.792969c0.328125,0.660156,0.755859,0.988281,1.25,0.988281
			c0.525391,0,1.345703-0.492188,2.532227-1.480469l0.294922,0.626953l-1.611328,1.447266
			c-1.052734,0.951172-2.106445,1.511719-2.828125,1.511719c-1.182617,0-1.94043-1.283203-2.366211-4.078125l-0.362305-2.267578
			l-2.499023,3.847656c-1.017578,1.544922-2.298828,2.498047-3.385742,2.498047c-0.392578,0-0.917969-0.130859-1.414062-0.394531
			C0.130859,23.407715,0.396484,22.554199,0.396484,21.405762z"/>
	</g>
	<path d="M18.129883,13.200684c-0.064941-0.415039-0.123047-0.735352-0.174316-0.959961
		c-0.035156-0.141602-0.147949-0.543945-0.338379-1.208008l0.400391-0.154297
		c0.307617,0.820312,0.660156,1.375977,1.058594,1.666016c0.398438,0.291016,0.917969,0.435547,1.556641,0.435547
		c0.469727,0,0.864258-0.091797,1.183594-0.277344c0.320312-0.185547,0.580078-0.481445,0.78125-0.886719
		c0.200195-0.405273,0.300781-0.861328,0.300781-1.369141c0-0.678711-0.173828-1.200195-0.519531-1.564453
		c-0.347656-0.363281-0.8125-0.544922-1.398438-0.544922c-0.195312,0-0.376953,0.019531-0.544922,0.058594
		s-0.417969,0.126953-0.75,0.263672l-0.087891-0.074219l0.160156-0.797852c0.390625,0.024414,0.652344,0.036133,0.783203,0.036133
		c0.595703,0,1.054688-0.208008,1.378906-0.625977c0.325195-0.416992,0.487305-0.889648,0.487305-1.416992
		c0-0.473633-0.171875-0.875977-0.516602-1.208984c-0.34375-0.331055-0.779297-0.498047-1.305664-0.498047
		c-0.317383,0-0.62207,0.064453-0.915039,0.191406s-0.550781,0.297852-0.775391,0.511719
		c-0.087891,0.186523-0.226562,0.535156-0.416992,1.047852h-0.454102l0.450195-1.757812
		c0.327148-0.341797,0.634766-0.581055,0.922852-0.717773c0.473633-0.214844,0.991211-0.322266,1.552734-0.322266
		c0.826172,0,1.478516,0.217773,1.958984,0.652344c0.481445,0.43457,0.722656,0.961914,0.722656,1.582031
		c0,0.419922-0.125,0.833008-0.373047,1.241211c-0.248047,0.407227-0.668945,0.823242-1.261719,1.249023
		c0.549805,0.072266,0.984375,0.198242,1.302734,0.376953c0.320312,0.177734,0.564453,0.429688,0.734375,0.753906
		c0.170898,0.325195,0.255859,0.6875,0.255859,1.087891c0,0.581055-0.182617,1.152344-0.548828,1.713867
		s-0.880859,1.025391-1.544922,1.391602s-1.384766,0.548828-2.161133,0.548828c-0.341797,0-0.654297-0.03125-0.9375-0.094727
		S18.491211,13.356934,18.129883,13.200684z"/>
</g>
</svg>
