<?xml version="1.0" encoding="utf-8"?>
<!-- Generator: Adobe Illustrator 16.0.0, SVG Export Plug-In . SVG Version: 6.00 Build 0)  -->
<!DOCTYPE svg PUBLIC "-//W3C//DTD SVG 1.1 Tiny//EN" "http://www.w3.org/Graphics/SVG/1.1/DTD/svg11-tiny.dtd">
<svg version="1.1" baseProfile="tiny" id="Layer_1" xmlns="http://www.w3.org/2000/svg" xmlns:xlink="http://www.w3.org/1999/xlink"
	 x="0px" y="0px" width="35.712891px" height="44.013672px" viewBox="0 0 35.712891 44.013672" xml:space="preserve">
<g>
	<path d="M3.417969,19.936523c-0.068359-0.439453-0.129883-0.77832-0.183594-1.015625
		c-0.037109-0.150391-0.157227-0.575195-0.358398-1.27832l0.422852-0.163086C3.625,18.347656,3.99707,18.935547,4.418945,19.242188
		c0.421875,0.307617,0.970703,0.460938,1.646484,0.460938c0.49707,0,0.914062-0.097656,1.251953-0.293945
		c0.338867-0.196289,0.613281-0.508789,0.826172-0.9375c0.211914-0.428711,0.318359-0.911133,0.318359-1.448242
		c0-0.717773-0.183594-1.269531-0.549805-1.655273c-0.367188-0.383789-0.859375-0.576172-1.478516-0.576172
		c-0.207031,0-0.399414,0.020508-0.577148,0.061523c-0.176758,0.041992-0.441406,0.134766-0.792969,0.279297l-0.092773-0.078125
		l0.168945-0.844727c0.413086,0.026367,0.69043,0.038086,0.829102,0.038086c0.629883,0,1.115234-0.219727,1.458008-0.662109
		c0.344727-0.44043,0.515625-0.94043,0.515625-1.498047c0-0.500977-0.181641-0.926758-0.545898-1.279297
		c-0.364258-0.350586-0.825195-0.526367-1.381836-0.526367c-0.334961,0-0.658203,0.067383-0.967773,0.202148
		c-0.30957,0.133789-0.582031,0.314453-0.820312,0.541016c-0.092773,0.197266-0.239258,0.566406-0.44043,1.108398H3.305664
		l0.475586-1.859375c0.34668-0.361328,0.671875-0.614258,0.976562-0.758789c0.500977-0.227539,1.048828-0.34082,1.642578-0.34082
		c0.874023,0,1.563477,0.229492,2.072266,0.689453s0.764648,1.017578,0.764648,1.673828
		c0,0.444336-0.132812,0.880859-0.395508,1.3125c-0.261719,0.430664-0.707031,0.871094-1.333984,1.321289
		c0.581055,0.076172,1.041016,0.209961,1.37793,0.398438c0.338867,0.188477,0.59668,0.455078,0.776367,0.797852
		c0.180664,0.34375,0.270508,0.727539,0.270508,1.150391c0,0.615234-0.192383,1.219727-0.580078,1.813477
		s-0.931641,1.084961-1.633789,1.47168c-0.703125,0.387695-1.464844,0.581055-2.286133,0.581055
		c-0.362305,0-0.692383-0.033203-0.992188-0.100586S3.799805,20.101562,3.417969,19.936523z"/>
	<g>
		<path d="M16.882812,31.789062l0.694336-0.106445l0.382812,0.973633c0.072266,0.176758,0.452148,0.314453,0.974609,0.314453
			c0.973633,0,2.158203-1.113281,3.651367-3.443359l1.390625-2.154297l-0.381836-2.157227
			c-0.592773-3.40918-1.356445-4.833008-2.501953-4.833008c-0.664062,0-1.357422,0.487305-2.40332,1.666016l-0.588867-0.34375
			l2.016602-2.887695c0.311523-0.454102,1.080078-0.731445,1.983398-0.731445c2.049805,0,2.988281,1.251953,3.405273,4.693359
			l0.208984,1.672852l1.287109-1.915039c2.15625-3.199219,3.547852-4.451172,4.938477-4.451172
			c0.313477,0,0.628906,0.108398,1.043945,0.350586l-0.520508,2.955078l-0.486328,0.136719
			c-0.176758-0.520508-0.592773-0.797852-1.150391-0.797852c-1.076172,0-2.015625,0.797852-3.651367,3.057617l-1.217773,1.705078
			l0.626953,3.510742c0.174805,1.010742,0.557617,2.298828,0.869141,2.955078c0.34668,0.697266,0.801758,1.044922,1.324219,1.044922
			c0.553711,0,1.422852-0.520508,2.678711-1.56543l0.310547,0.662109L30.0625,33.630859
			c-1.112305,1.006836-2.226562,1.599609-2.992188,1.599609c-1.250977,0-2.052734-1.356445-2.501953-4.3125l-0.381836-2.399414
			l-2.645508,4.069336c-1.075195,1.633789-2.431641,2.642578-3.581055,2.642578c-0.416016,0-0.97168-0.138672-1.494141-0.416016
			C16.604492,33.907227,16.882812,33.003906,16.882812,31.789062z"/>
		<polygon points="35.712891,12.410156 35.712891,13.304688 14.256836,13.304688 7.996094,35.038086 2.487305,23.504883 
			0.257812,24.341797 0,23.905273 4.018555,21.755859 8.133789,30.482422 13.303711,12.410156 		"/>
	</g>
</g>
</svg>
