<?xml version="1.0" encoding="utf-8"?>
<!-- Generator: Adobe Illustrator 16.0.0, SVG Export Plug-In . SVG Version: 6.00 Build 0)  -->
<!DOCTYPE svg PUBLIC "-//W3C//DTD SVG 1.1 Tiny//EN" "http://www.w3.org/Graphics/SVG/1.1/DTD/svg11-tiny.dtd">
<svg version="1.1" baseProfile="tiny" id="Layer_1" xmlns="http://www.w3.org/2000/svg" xmlns:xlink="http://www.w3.org/1999/xlink"
	 x="0px" y="0px" width="25.693359px" height="44.013672px" viewBox="0 0 25.693359 44.013672" xml:space="preserve">
<g>
	<g>
		<path d="M0.419922,31.789062l0.694336-0.105469l0.381836,0.972656c0.070312,0.175781,0.452148,0.314453,0.972656,0.314453
			c0.975586,0,2.158203-1.113281,3.654297-3.444336l1.390625-2.152344l-0.382812-2.15918
			c-0.592773-3.40918-1.358398-4.832031-2.503906-4.832031c-0.662109,0-1.356445,0.487305-2.400391,1.666992l-0.588867-0.344727
			l2.016602-2.888672c0.310547-0.452148,1.077148-0.731445,1.981445-0.731445c2.048828,0,2.989258,1.251953,3.40625,4.694336
			l0.209961,1.672852l1.287109-1.915039c2.155273-3.200195,3.546875-4.452148,4.935547-4.452148
			c0.31543,0,0.628906,0.109375,1.045898,0.351562l-0.521484,2.954102l-0.487305,0.138672
			c-0.174805-0.520508-0.59082-0.799805-1.147461-0.799805c-1.076172,0-2.016602,0.799805-3.651367,3.057617l-1.21875,1.707031
			l0.625,3.509766c0.176758,1.009766,0.558594,2.299805,0.871094,2.954102c0.347656,0.698242,0.799805,1.045898,1.322266,1.045898
			c0.555664,0,1.423828-0.520508,2.678711-1.566406l0.311523,0.663086l-1.704102,1.53125
			c-1.113281,1.005859-2.228516,1.598633-2.991211,1.598633c-1.250977,0-2.052734-1.357422-2.50293-4.313477l-0.383789-2.398438
			l-2.643555,4.070312c-1.076172,1.633789-2.431641,2.641602-3.581055,2.641602c-0.415039,0-0.970703-0.137695-1.496094-0.416992
			C0.138672,33.90625,0.419922,33.003906,0.419922,31.789062z"/>
	</g>
	<path d="M19.177734,23.109375c-0.068359-0.438477-0.129883-0.777344-0.18457-1.015625
		c-0.037109-0.149414-0.15625-0.575195-0.357422-1.277344l0.423828-0.163086c0.325195,0.867188,0.698242,1.455078,1.119141,1.761719
		c0.421875,0.308594,0.97168,0.460938,1.646484,0.460938c0.49707,0,0.914062-0.09668,1.251953-0.292969
		c0.338867-0.196289,0.614258-0.509766,0.827148-0.938477c0.210938-0.428711,0.317383-0.911133,0.317383-1.448242
		c0-0.717773-0.183594-1.269531-0.548828-1.654297c-0.368164-0.384766-0.859375-0.577148-1.479492-0.577148
		c-0.207031,0-0.398438,0.021484-0.576172,0.0625s-0.442383,0.133789-0.793945,0.27832l-0.092773-0.078125l0.169922-0.84375
		c0.413086,0.025391,0.689453,0.038086,0.828125,0.038086c0.629883,0,1.115234-0.219727,1.458008-0.662109
		c0.344727-0.441406,0.515625-0.941406,0.515625-1.499023c0-0.500977-0.181641-0.926758-0.545898-1.27832
		c-0.364258-0.350586-0.824219-0.527344-1.381836-0.527344c-0.334961,0-0.657227,0.068359-0.967773,0.202148
		c-0.30957,0.134766-0.582031,0.31543-0.820312,0.541992c-0.092773,0.197266-0.239258,0.56543-0.44043,1.108398H19.06543
		l0.476562-1.859375c0.345703-0.362305,0.670898-0.615234,0.975586-0.759766c0.500977-0.227539,1.048828-0.34082,1.642578-0.34082
		c0.874023,0,1.564453,0.230469,2.072266,0.69043c0.508789,0.458984,0.764648,1.017578,0.764648,1.672852
		c0,0.444336-0.132812,0.881836-0.394531,1.313477c-0.262695,0.430664-0.708008,0.871094-1.334961,1.321289
		c0.582031,0.076172,1.041016,0.208984,1.37793,0.398438c0.338867,0.188477,0.597656,0.454102,0.777344,0.797852
		c0.180664,0.34375,0.270508,0.726562,0.270508,1.150391c0,0.614258-0.193359,1.21875-0.581055,1.8125
		c-0.386719,0.594727-0.931641,1.084961-1.633789,1.472656c-0.703125,0.386719-1.464844,0.580078-2.286133,0.580078
		c-0.361328,0-0.692383-0.033203-0.992188-0.099609C19.901367,23.390625,19.560547,23.274414,19.177734,23.109375z"/>
</g>
</svg>
