<?xml version="1.0" encoding="utf-8"?>
<!-- Generated by IcoMoon.io -->
<!DOCTYPE svg PUBLIC "-//W3C//DTD SVG 1.1//EN" "http://www.w3.org/Graphics/SVG/1.1/DTD/svg11.dtd">
<svg version="1.1" xmlns="http://www.w3.org/2000/svg" xmlns:xlink="http://www.w3.org/1999/xlink" width="719" height="1024" viewBox="0 0 719 1024">
	<path d="M43.533 580.885h631.89v70.236h-631.89v-70.236zM433.474 375.319c0 38.99-33.889 71.426-73.996 71.426-37.613 0-71.5-33.776-71.5-72.693 0-37.538 33.889-72.693 72.693-72.693 38.917 0 72.804 35.154 72.804 73.959zM433.474 859.217c0 38.878-33.889 71.426-73.996 71.426-37.613 0-71.5-33.74-71.5-72.693 0-37.65 33.889-72.729 72.693-72.729 38.917 0 72.804 35.079 72.804 73.996z" />
</svg>
