<?xml version="1.0" encoding="utf-8"?>
<!-- Generator: Adobe Illustrator 16.0.0, SVG Export Plug-In . SVG Version: 6.00 Build 0)  -->
<!DOCTYPE svg PUBLIC "-//W3C//DTD SVG 1.1 Tiny//EN" "http://www.w3.org/Graphics/SVG/1.1/DTD/svg11-tiny.dtd">
<svg version="1.1" baseProfile="tiny" id="Layer_1" xmlns="http://www.w3.org/2000/svg" xmlns:xlink="http://www.w3.org/1999/xlink"
	 x="0px" y="0px" width="14.913574px" height="32.962891px" viewBox="0 0 14.913574 32.962891" xml:space="preserve">
<path d="M0,15.726074h14.913574v1.657715H0V15.726074z M9.203125,10.874512c0,0.92041-0.799805,1.686035-1.746582,1.686035
	c-0.887695,0-1.6875-0.797363-1.6875-1.71582c0-0.885742,0.799805-1.71582,1.71582-1.71582
	C8.40332,9.128906,9.203125,9.958984,9.203125,10.874512z M9.203125,22.294922c0,0.917969-0.799805,1.686035-1.746582,1.686035
	c-0.887695,0-1.6875-0.796387-1.6875-1.71582c0-0.888672,0.799805-1.716309,1.71582-1.716309
	C8.40332,20.548828,9.203125,21.376465,9.203125,22.294922z"/>
</svg>
