<?xml version="1.0" encoding="utf-8"?>
<!-- Generator: Adobe Illustrator 16.0.0, SVG Export Plug-In . SVG Version: 6.00 Build 0)  -->
<!DOCTYPE svg PUBLIC "-//W3C//DTD SVG 1.1 Tiny//EN" "http://www.w3.org/Graphics/SVG/1.1/DTD/svg11-tiny.dtd">
<svg version="1.1" baseProfile="tiny" id="Layer_1" xmlns="http://www.w3.org/2000/svg" xmlns:xlink="http://www.w3.org/1999/xlink"
	 x="0px" y="0px" width="30.230469px" height="44.013672px" viewBox="0 0 30.230469 44.013672" xml:space="preserve">
<g>
	<g>
		<path d="M19.774414,22.763672l0.206055-1.084961c0.029297-0.229492,0.049805-0.503906,0.064453-0.824219l0.423828-0.074219
			l0.249023,0.62793c0.194336,0.124023,0.368164,0.183594,0.521484,0.183594c0.251953,0,0.476562-0.05957,0.670898-0.183594
			c0.333008-0.200195,0.737305-0.613281,1.214844-1.233398c0.246094-0.318359,0.708984-1.026367,1.388672-2.123047
			c-0.303711-2.110352-0.632812-3.44043-0.986328-3.987305c-0.173828-0.266602-0.412109-0.400391-0.71582-0.400391
			c-0.209961,0-0.407227,0.044922-0.59082,0.134766c-0.185547,0.089844-0.432617,0.294922-0.744141,0.616211l-0.28125,0.279297
			l-0.390625-0.227539l1.301758-1.855469c0.188477-0.129883,0.388672-0.224609,0.601562-0.287109
			c0.212891-0.060547,0.439453-0.091797,0.677734-0.091797c0.708008,0,1.243164,0.321289,1.605469,0.964844
			c0.268555,0.476562,0.485352,1.487305,0.650391,3.03418l1.214844-1.836914c0.361328-0.52832,0.749023-0.996094,1.161133-1.401367
			c0.303711-0.303711,0.582031-0.512695,0.834961-0.624023c0.253906-0.112305,0.488281-0.168945,0.705078-0.168945
			c0.224609,0,0.448242,0.061523,0.672852,0.18457c-0.123047,0.584961-0.236328,1.214844-0.336914,1.886719l-0.292969,0.06543
			c-0.108398-0.195312-0.210938-0.325195-0.308594-0.390625c-0.09668-0.06543-0.224609-0.09668-0.383789-0.09668
			c-0.240234,0-0.466797,0.057617-0.68457,0.172852c-0.294922,0.166992-0.620117,0.457031-0.974609,0.870117
			c-0.231445,0.268555-0.714844,0.931641-1.452148,1.990234c0.245117,1.487305,0.424805,2.469727,0.541016,2.947266
			c0.196289,0.776367,0.418945,1.298828,0.672852,1.567383c0.158203,0.166016,0.339844,0.25,0.541992,0.25
			s0.413086-0.048828,0.633789-0.148438c0.219727-0.098633,0.576172-0.333008,1.067383-0.698242l0.249023,0.390625
			c-0.896484,0.78125-1.623047,1.326172-2.179688,1.638672c-0.267578,0.150391-0.535156,0.226562-0.802734,0.226562
			c-0.469727,0-0.841797-0.287109-1.116211-0.859375c-0.275391-0.574219-0.520508-1.706055-0.738281-3.398438
			c-1.193359,1.987305-2.125977,3.253906-2.798828,3.803711c-0.368164,0.303711-0.769531,0.454102-1.204102,0.454102
			C20.323242,23.056641,20.027344,22.959961,19.774414,22.763672z"/>
	</g>
	<path d="M0.570312,40.689453l1.688477-1.140625l0.357422,0.118164c-0.023438,0.216797-0.03418,0.392578-0.03418,0.529297
		c0,0.704102,0.217773,1.282227,0.65625,1.739258c0.4375,0.452148,0.96875,0.681641,1.59375,0.681641
		c0.40918,0,0.837891-0.105469,1.286133-0.316406c0.449219-0.209961,0.855469-0.530273,1.21875-0.961914
		c0.488281-0.568359,1.022461-1.498047,1.603516-2.787109c0.578125-1.290039,1.230469-3.151367,1.958984-5.583008l1.318359-4.737305
		c-0.828125,1.260742-1.674805,2.357422-2.536133,3.289062c-1.487305,1.636719-2.47168,2.599609-2.954102,2.888672
		s-0.882812,0.435547-1.200195,0.435547c-0.364258,0-0.669922-0.1875-0.919922-0.563477
		c-0.396484-0.568359-0.594727-1.396484-0.594727-2.487305c0-0.432617,0.078125-1.34082,0.237305-2.727539
		c0.272461-2.489258,0.40918-4.681641,0.40918-6.580078c0-0.760742-0.039062-1.3125-0.119141-1.65332
		c-0.044922-0.214844-0.125-0.374023-0.238281-0.476562c-0.079102-0.068359-0.175781-0.101562-0.289062-0.101562
		c-0.34082,0-1.057617,0.418945-2.148438,1.260742c-0.192383,0.148438-0.334961,0.249023-0.425781,0.307617l-0.460938-0.614258
		c1.331055-1.135742,2.557617-2.056641,3.681641-2.762695c0.636719-0.396484,1.142578-0.595703,1.517578-0.595703
		c0.329102,0,0.59375,0.142578,0.791992,0.426758s0.298828,0.864258,0.298828,1.740234
		c0,0.739258-0.102539,2.298828-0.306641,4.674805c-0.25,2.789062-0.375,4.807617-0.375,6.05957
		c0,0.581055,0.067383,0.973633,0.203125,1.177734c0.114258,0.146484,0.266602,0.22168,0.458984,0.22168
		c0.193359,0,0.385742-0.051758,0.578125-0.15332c0.430664-0.239258,0.943359-0.665039,1.538086-1.28125
		c0.595703-0.613281,1.158203-1.320312,1.691406-2.115234c0.883789-1.297852,1.631836-2.799805,2.243164-4.505859
		c0.386719-1.035156,0.90332-2.913086,1.551758-5.631836c0.671875-0.101562,1.529297-0.317383,2.575195-0.647461l0.375,0.34082
		c-0.318359,0.670898-0.629883,1.460938-0.9375,2.370117c-0.533203,1.545898-1.266602,3.919922-2.198242,7.124023
		c-0.75,2.602539-1.3125,4.448242-1.688477,5.539062c-0.691406,2.09082-1.411133,3.794922-2.154297,5.113281
		c-0.744141,1.317383-1.651367,2.489258-2.717773,3.511719c-0.796875,0.772461-1.59375,1.333008-2.395508,1.677734
		c-0.800781,0.347656-1.558594,0.520508-2.274414,0.520508c-0.5,0-0.995117-0.12207-1.483398-0.365234
		c-0.489258-0.246094-0.855469-0.581055-1.099609-1.006836c-0.244141-0.424805-0.365234-0.883789-0.365234-1.371094
		C0.486328,41.098633,0.513672,40.90625,0.570312,40.689453z"/>
</g>
</svg>
