<?xml version="1.0" encoding="utf-8"?>
<!-- Generator: Adobe Illustrator 16.0.0, SVG Export Plug-In . SVG Version: 6.00 Build 0)  -->
<!DOCTYPE svg PUBLIC "-//W3C//DTD SVG 1.1 Tiny//EN" "http://www.w3.org/Graphics/SVG/1.1/DTD/svg11-tiny.dtd">
<svg version="1.1" baseProfile="tiny" id="Layer_1" xmlns="http://www.w3.org/2000/svg" xmlns:xlink="http://www.w3.org/1999/xlink"
	 x="0px" y="0px" width="28.119141px" height="32.962891px" viewBox="0 0 28.119141 32.962891" xml:space="preserve">
<g>
	<g>
		<path d="M18.234375,12.873535l0.195312-1.025391c0.027344-0.216797,0.046875-0.476562,0.060547-0.779297l0.400391-0.070312
			l0.236328,0.59375c0.183594,0.117188,0.347656,0.173828,0.492188,0.173828c0.238281,0,0.451172-0.056641,0.634766-0.173828
			c0.314453-0.189453,0.697266-0.580078,1.148438-1.166016c0.232422-0.300781,0.669922-0.970703,1.3125-2.007324
			c-0.287109-1.995117-0.597656-3.251953-0.932617-3.769531c-0.164062-0.251953-0.389648-0.37793-0.676758-0.37793
			c-0.198242,0-0.384766,0.041992-0.558594,0.126953c-0.174805,0.084961-0.408203,0.279297-0.703125,0.583008l-0.265625,0.263672
			l-0.369141-0.214844l1.230469-1.753906c0.177734-0.123047,0.367188-0.212891,0.568359-0.271484
			c0.201172-0.057617,0.416016-0.086914,0.640625-0.086914c0.669922,0,1.175781,0.303711,1.517578,0.912109
			c0.253906,0.450195,0.458984,1.40625,0.615234,2.868164l1.148438-1.736328c0.341797-0.5,0.708008-0.941406,1.097656-1.325195
			c0.287109-0.287109,0.550781-0.484375,0.789062-0.589844c0.240234-0.106445,0.461914-0.15918,0.666992-0.15918
			c0.211914,0,0.423828,0.057617,0.635742,0.173828c-0.116211,0.553711-0.222656,1.148438-0.318359,1.78418l-0.276367,0.061523
			c-0.102539-0.18457-0.200195-0.307617-0.291992-0.369141s-0.212891-0.091797-0.363281-0.091797
			c-0.226562,0-0.441406,0.054688-0.646484,0.164062c-0.279297,0.157227-0.586914,0.431641-0.921875,0.822266
			c-0.21875,0.253906-0.675781,0.880859-1.373047,1.881836c0.232422,1.405273,0.402344,2.334473,0.511719,2.785645
			c0.185547,0.734375,0.396484,1.228516,0.635742,1.482422c0.150391,0.15625,0.321289,0.236328,0.512695,0.236328
			s0.390625-0.046875,0.599609-0.140625c0.207031-0.09375,0.543945-0.314453,1.008789-0.660156l0.235352,0.369141
			c-0.847656,0.738281-1.53418,1.253906-2.060547,1.548828c-0.25293,0.142578-0.505859,0.214844-0.758789,0.214844
			c-0.444336,0-0.795898-0.271484-1.055664-0.8125c-0.259766-0.542969-0.492188-1.613281-0.697266-3.212891
			c-1.128906,1.878906-2.009766,3.076172-2.646484,3.595703c-0.347656,0.287109-0.727539,0.429688-1.137695,0.429688
			C18.753906,13.150879,18.473633,13.059082,18.234375,12.873535z"/>
	</g>
	<path d="M0.080078,29.820312l1.595703-1.078125l0.337891,0.111328c-0.021484,0.205078-0.032227,0.371094-0.032227,0.5
		c0,0.666016,0.206055,1.212891,0.620117,1.644531c0.414062,0.427734,0.916016,0.644531,1.506836,0.644531
		c0.386719,0,0.791992-0.099609,1.21582-0.298828c0.424805-0.199219,0.808594-0.501953,1.152344-0.910156
		c0.461914-0.537109,0.966797-1.416016,1.515625-2.634766c0.546875-1.21875,1.164062-2.978516,1.852539-5.277344l1.246094-4.478516
		c-0.783203,1.191406-1.583008,2.228516-2.397461,3.109375c-1.40625,1.546875-2.336914,2.457031-2.792969,2.730469
		s-0.833984,0.412109-1.134766,0.412109c-0.34375,0-0.632812-0.177734-0.869141-0.533203
		c-0.375-0.537109-0.5625-1.320312-0.5625-2.351562c0-0.408203,0.074219-1.267578,0.224609-2.578125
		c0.257812-2.353516,0.386719-4.425781,0.386719-6.220703c0-0.71875-0.037109-1.240234-0.112305-1.5625
		c-0.042969-0.203125-0.118164-0.353516-0.225586-0.451172c-0.075195-0.064453-0.166016-0.095703-0.273438-0.095703
		c-0.322266,0-1,0.396484-2.03125,1.191406c-0.181641,0.140625-0.316406,0.236328-0.402344,0.291016l-0.435547-0.580078
		c1.257812-1.074219,2.417969-1.944824,3.480469-2.611816c0.601562-0.375,1.080078-0.563477,1.43457-0.563477
		c0.311523,0,0.561523,0.134766,0.749023,0.40332s0.282227,0.817383,0.282227,1.64502
		c0,0.699219-0.09668,2.173828-0.290039,4.419922c-0.236328,2.636719-0.354492,4.544922-0.354492,5.728516
		c0,0.548828,0.063477,0.919922,0.192383,1.113281c0.107422,0.138672,0.251953,0.208984,0.433594,0.208984
		c0.182617,0,0.365234-0.048828,0.546875-0.144531c0.407227-0.226562,0.891602-0.628906,1.454102-1.210938
		c0.5625-0.580078,1.094727-1.248047,1.598633-2c0.835938-1.226562,1.542969-2.646484,2.121094-4.259766
		c0.365234-0.978516,0.853516-2.753906,1.466797-5.32373c0.634766-0.09668,1.445312-0.300781,2.43457-0.612305l0.354492,0.322266
		c-0.300781,0.633789-0.595703,1.380859-0.886719,2.240723c-0.503906,1.460938-1.197266,3.705078-2.078125,6.734375
		c-0.708984,2.460938-1.240234,4.205078-1.595703,5.236328c-0.654297,1.976562-1.333984,3.587891-2.037109,4.833984
		s-1.560547,2.353516-2.569336,3.320312c-0.75293,0.730469-1.506836,1.259766-2.264648,1.585938
		c-0.756836,0.328125-1.473633,0.492188-2.150391,0.492188c-0.472656,0-0.94043-0.115234-1.402344-0.345703
		c-0.461914-0.232422-0.808594-0.548828-1.039062-0.951172S0,30.830078,0,30.369141
		C0,30.207031,0.026367,30.025391,0.080078,29.820312z"/>
</g>
</svg>
