<?xml version="1.0" encoding="utf-8"?>
<!-- Generator: Adobe Illustrator 16.0.0, SVG Export Plug-In . SVG Version: 6.00 Build 0)  -->
<!DOCTYPE svg PUBLIC "-//W3C//DTD SVG 1.1 Tiny//EN" "http://www.w3.org/Graphics/SVG/1.1/DTD/svg11-tiny.dtd">
<svg version="1.1" baseProfile="tiny" id="Layer_1" xmlns="http://www.w3.org/2000/svg" xmlns:xlink="http://www.w3.org/1999/xlink"
	 x="0px" y="0px" width="16.870117px" height="44.013672px" viewBox="0 0 16.870117 44.013672" xml:space="preserve">
<g>
	<g>
		<path d="M6.021484,13.368164l-0.411133-0.107422c0.006836-0.118164,0.008789-0.282227,0.008789-0.488281
			c0-0.216797-0.001953-0.389648-0.008789-0.519531c0.657227-0.427734,1.196289-0.716797,1.613281-0.868164
			c0.323242-0.107422,0.682617-0.162109,1.079102-0.162109c0.59082,0,1.086914,0.111328,1.489258,0.333984
			c0.405273,0.22168,0.705078,0.539062,0.901367,0.952148c0.133789,0.289062,0.202148,0.68457,0.202148,1.185547l-0.039062,1.417969
			v2.308594c0,0.248047,0.020508,0.426758,0.061523,0.53418c0.03125,0.078125,0.081055,0.134766,0.146484,0.170898
			c0.051758,0.03125,0.161133,0.051758,0.327148,0.0625l0.501953,0.044922v0.442383
			c-0.423828-0.036133-0.795898-0.053711-1.116211-0.053711c-0.30957,0-0.722656,0.017578-1.239258,0.053711L9.577148,17.3125
			c-1.053711,0.794922-1.677734,1.243164-1.874023,1.34375c-0.196289,0.101562-0.444336,0.152344-0.743164,0.152344
			c-0.625977,0-1.112305-0.167969-1.460938-0.5c-0.349609-0.333984-0.522461-0.776367-0.522461-1.329102
			c0-0.357422,0.05957-0.681641,0.181641-0.976562c0.12207-0.293945,0.266602-0.52832,0.4375-0.701172
			c0.169922-0.172852,0.34375-0.299805,0.518555-0.383789c0.299805-0.138672,0.787109-0.288086,1.460938-0.448242
			s1.34082-0.279297,2.001953-0.357422c0.005859-0.490234-0.053711-0.87207-0.177734-1.146484
			c-0.124023-0.273438-0.332031-0.498047-0.62793-0.673828c-0.292969-0.175781-0.652344-0.263672-1.076172-0.263672
			c-0.305664,0-0.572266,0.041992-0.801758,0.124023c-0.229492,0.083008-0.37207,0.15332-0.423828,0.209961l-0.137695,0.279297
			C6.191406,12.951172,6.087891,13.193359,6.021484,13.368164z M9.577148,14.584961
			c-0.670898,0.114258-1.243164,0.240234-1.71875,0.380859c-0.475586,0.137695-0.811523,0.283203-1.007812,0.433594
			c-0.118164,0.087891-0.22168,0.21875-0.310547,0.394531c-0.133789,0.257812-0.200195,0.544922-0.200195,0.859375
			c0,0.382812,0.105469,0.680664,0.316406,0.895508c0.212891,0.213867,0.505859,0.321289,0.883789,0.321289
			c0.344727,0,0.688477-0.098633,1.027344-0.298828c0.338867-0.198242,0.674805-0.496094,1.009766-0.894531V14.584961z"/>
	</g>
	<path d="M4.796875,36.287109c0.061523-0.650391,0.094727-1.060547,0.098633-1.230469
		c0.03125-1.120117,0.047852-1.77832,0.047852-1.974609v-3.445312c0-0.861328-0.012695-1.751953-0.039062-2.669922
		c-0.020508-0.620117-0.049805-0.96582-0.084961-1.038086c-0.027344-0.051758-0.068359-0.087891-0.125977-0.107422
		c-0.076172-0.036133-0.436523-0.054688-1.074219-0.054688v-0.458008c1.166992-0.143555,1.976562-0.324219,2.431641-0.541016
		c0.068359-0.03125,0.120117-0.047852,0.154297-0.047852c0.038086,0,0.064453,0.012695,0.084961,0.035156
		c0.020508,0.024414,0.03125,0.055664,0.03125,0.097656c0,0.036133-0.003906,0.087891-0.014648,0.154297l-0.007812,0.255859
		C6.273438,26.185547,6.256836,26.97168,6.25293,27.62207l-0.016602,1.206055v1.532227l1.070312-1.045898
		c0.138672-0.118164,0.368164-0.234375,0.688477-0.348633c0.319336-0.112305,0.661133-0.169922,1.022461-0.169922
		c0.568359,0,1.072266,0.132812,1.511719,0.399414c0.438477,0.265625,0.775391,0.641602,1.010742,1.126953
		s0.353516,1.022461,0.353516,1.611328c0,0.454102-0.068359,0.885742-0.203125,1.293945
		c-0.133789,0.408203-0.307617,0.771484-0.518555,1.091797c-0.154297,0.243164-0.287109,0.408203-0.394531,0.496094
		l-1.131836,0.813477c-0.458984,0.34082-0.818359,0.55957-1.076172,0.654297c-0.258789,0.09668-0.588867,0.143555-0.992188,0.143555
		c-0.34668,0-0.666992-0.045898-0.960938-0.139648c-0.294922-0.092773-0.606445-0.255859-0.9375-0.487305l-0.62793,0.588867
		L4.796875,36.287109z M6.236328,31.290039v2.905273c0,0.258789,0.014648,0.423828,0.043945,0.496094
		c0.02832,0.072266,0.113281,0.168945,0.257812,0.286133c0.216797,0.181641,0.46875,0.326172,0.755859,0.433594
		c0.287109,0.110352,0.59082,0.164062,0.911133,0.164062c0.748047,0,1.324219-0.290039,1.727539-0.868164
		s0.603516-1.292969,0.603516-2.146484c0-0.603516-0.095703-1.109375-0.285156-1.518555
		c-0.192383-0.407227-0.455078-0.713867-0.791016-0.916992C9.125,29.919922,8.74707,29.819336,8.329102,29.819336
		c-0.491211,0-0.929688,0.139648-1.317383,0.420898C6.625,30.522461,6.367188,30.873047,6.236328,31.290039z"/>
	<path d="M0,22.742188v-1.818359h16.870117v1.818359H0z"/>
</g>
</svg>
