<?xml version="1.0" encoding="utf-8"?>
<!-- Generator: Adobe Illustrator 16.0.0, SVG Export Plug-In . SVG Version: 6.00 Build 0)  -->
<!DOCTYPE svg PUBLIC "-//W3C//DTD SVG 1.1 Tiny//EN" "http://www.w3.org/Graphics/SVG/1.1/DTD/svg11-tiny.dtd">
<svg version="1.1" baseProfile="tiny" id="Layer_1" xmlns="http://www.w3.org/2000/svg" xmlns:xlink="http://www.w3.org/1999/xlink"
	 x="0px" y="0px" width="15.949219px" height="32.962891px" viewBox="0 0 15.949219 32.962891" xml:space="preserve">
<g>
	<g>
		<path d="M5.693359,3.991699L5.304688,3.890137C5.310547,3.777832,5.3125,3.623535,5.3125,3.428223
			c0-0.205078-0.001953-0.368164-0.007812-0.491211c0.621094-0.404297,1.130859-0.677734,1.525391-0.820312
			c0.304688-0.101562,0.644531-0.15332,1.019531-0.15332c0.558594,0,1.027344,0.105469,1.408203,0.31543
			c0.382812,0.209961,0.666016,0.509766,0.851562,0.900391c0.126953,0.273438,0.191406,0.647461,0.191406,1.121094
			l-0.037109,1.339844v2.182617c0,0.234375,0.019531,0.40332,0.058594,0.504883
			c0.029297,0.074219,0.076172,0.12793,0.138672,0.162109c0.048828,0.029297,0.152344,0.048828,0.308594,0.058594l0.474609,0.042969
			v0.417969c-0.400391-0.03418-0.751953-0.050781-1.054688-0.050781c-0.292969,0-0.683594,0.016602-1.171875,0.050781
			l0.037109-1.289062C8.058594,8.472168,7.46875,8.895996,7.283203,8.990723C7.097656,9.086426,6.863281,9.134277,6.580078,9.134277
			c-0.591797,0-1.050781-0.158203-1.380859-0.472656c-0.330078-0.31543-0.494141-0.733398-0.494141-1.255859
			c0-0.337891,0.056641-0.644531,0.171875-0.923828C4.992188,6.20459,5.128906,5.98291,5.291016,5.819824
			c0.160156-0.164062,0.324219-0.28418,0.490234-0.363281c0.283203-0.130859,0.744141-0.272461,1.380859-0.423828
			s1.267578-0.263672,1.892578-0.337891C9.060547,4.231934,9.003906,3.870605,8.886719,3.61084
			c-0.117188-0.257812-0.314453-0.470703-0.59375-0.636719C8.015625,2.808105,7.675781,2.725098,7.275391,2.725098
			c-0.289062,0-0.541016,0.039062-0.757812,0.117188S6.166016,2.986816,6.117188,3.040527L5.986328,3.304199
			C5.853516,3.597168,5.755859,3.82666,5.693359,3.991699z M9.054688,5.14209c-0.634766,0.107422-1.175781,0.226562-1.625,0.359375
			C6.980469,5.632324,6.662109,5.77002,6.476562,5.911621C6.365234,5.994629,6.267578,6.118652,6.183594,6.284668
			c-0.126953,0.244141-0.189453,0.515625-0.189453,0.8125c0,0.362305,0.099609,0.643555,0.298828,0.84668
			c0.201172,0.202148,0.478516,0.303711,0.835938,0.303711c0.326172,0,0.650391-0.09375,0.970703-0.282227
			c0.320312-0.1875,0.638672-0.469727,0.955078-0.845703V5.14209z"/>
	</g>
	<path d="M4.535156,25.658691c0.058594-0.615234,0.089844-1.00293,0.09375-1.164062
		c0.029297-1.058594,0.044922-1.680664,0.044922-1.866211v-3.256836c0-0.814453-0.011719-1.65625-0.037109-2.524414
		c-0.019531-0.585938-0.046875-0.913086-0.080078-0.981445C4.53125,15.816895,4.492188,15.782715,4.4375,15.76416
		c-0.072266-0.03418-0.412109-0.051758-1.015625-0.051758v-0.432617c1.103516-0.135742,1.869141-0.306641,2.298828-0.511719
		c0.064453-0.029297,0.113281-0.044922,0.146484-0.044922c0.035156,0,0.060547,0.011719,0.080078,0.033203
		c0.019531,0.022461,0.029297,0.052734,0.029297,0.091797c0,0.03418-0.003906,0.083008-0.013672,0.146484L5.955078,15.23584
		c-0.023438,0.873047-0.039062,1.616211-0.042969,2.230469l-0.015625,1.140625v1.448242l1.011719-0.988281
		c0.130859-0.112305,0.347656-0.22168,0.650391-0.330078c0.302734-0.106445,0.625-0.160156,0.966797-0.160156
		c0.537109,0,1.013672,0.125,1.429688,0.376953c0.414062,0.250977,0.732422,0.606445,0.955078,1.06543
		s0.333984,0.966797,0.333984,1.523438c0,0.429688-0.064453,0.837891-0.191406,1.223633s-0.291016,0.729492-0.490234,1.032227
		c-0.146484,0.229492-0.271484,0.385742-0.373047,0.46875l-1.070312,0.768555
		c-0.433594,0.322266-0.773438,0.529297-1.017578,0.619141c-0.244141,0.09082-0.556641,0.135742-0.9375,0.135742
		c-0.328125,0-0.630859-0.043945-0.908203-0.131836c-0.279297-0.087891-0.574219-0.242188-0.886719-0.460938l-0.59375,0.556641
		L4.535156,25.658691z M5.896484,20.934082v2.74707c0,0.244141,0.013672,0.400391,0.041016,0.46875
		s0.107422,0.15918,0.244141,0.270508c0.205078,0.171875,0.443359,0.308594,0.714844,0.410156
		c0.271484,0.103516,0.558594,0.154297,0.861328,0.154297c0.707031,0,1.251953-0.273438,1.632812-0.820312
		s0.570312-1.222656,0.570312-2.029297c0-0.570312-0.089844-1.048828-0.269531-1.435547
		c-0.181641-0.384766-0.429688-0.674805-0.748047-0.867188C8.626953,19.63916,8.269531,19.543457,7.875,19.543457
		c-0.464844,0-0.878906,0.132812-1.246094,0.398438C6.263672,20.208496,6.019531,20.539551,5.896484,20.934082z"/>
	<path d="M0.000977,12.853516v-1.719238h15.948242v1.719238H0.000977z"/>
</g>
</svg>
