<?xml version="1.0" encoding="utf-8"?>
<!-- Generator: Adobe Illustrator 16.0.0, SVG Export Plug-In . SVG Version: 6.00 Build 0)  -->
<!DOCTYPE svg PUBLIC "-//W3C//DTD SVG 1.1 Tiny//EN" "http://www.w3.org/Graphics/SVG/1.1/DTD/svg11-tiny.dtd">
<svg version="1.1" baseProfile="tiny" id="Layer_1" xmlns="http://www.w3.org/2000/svg" xmlns:xlink="http://www.w3.org/1999/xlink"
	 x="0px" y="0px" width="22.052734px" height="23.601074px" viewBox="0 0 22.052734 23.601074" xml:space="preserve">
<g>
	<path d="M3.500977,21.064941l-0.275391,0.308594c-1.191406-1.12207-1.657227-1.689453-2.166016-2.664062
		C0.361328,17.400879,0,15.934082,0,14.373535C0,10.36377,2.397461,8.42627,3.225586,7.684082l0.275391,0.379883
		C2.657227,9.055176,1.25,10.594238,1.25,14.373535C1.25,18.463379,2.833984,20.23877,3.500977,21.064941z"/>
	<path d="M22.052734,14.390137c0,4.188477-2.458008,6.251953-3.227539,6.979492l-0.274414-0.304688
		c0.742188-0.918945,2.250977-2.674805,2.250977-6.691406c0-3.779297-1.453125-5.380859-2.250977-6.30957l0.274414-0.375977
		C19.654297,8.42627,22.052734,10.36377,22.052734,14.390137z"/>
	<path d="M5.202148,15.483887V13.57373h11.647461v1.910156H5.202148z"/>
</g>
</svg>
