<?xml version="1.0" encoding="utf-8"?>
<!-- Generator: Adobe Illustrator 16.0.0, SVG Export Plug-In . SVG Version: 6.00 Build 0)  -->
<!DOCTYPE svg PUBLIC "-//W3C//DTD SVG 1.1 Tiny//EN" "http://www.w3.org/Graphics/SVG/1.1/DTD/svg11-tiny.dtd">
<svg version="1.1" baseProfile="tiny" id="Layer_1" xmlns="http://www.w3.org/2000/svg" xmlns:xlink="http://www.w3.org/1999/xlink"
	 x="0px" y="0px" width="23.327148px" height="44.013672px" viewBox="0 0 23.327148 44.013672" xml:space="preserve">
<g>
	<path d="M3.703125,33.572266l-0.291016,0.326172c-1.259766-1.186523-1.75293-1.787109-2.291016-2.817383
		C0.382812,29.696289,0,28.144531,0,26.494141c0-4.241211,2.536133-6.291016,3.412109-7.076172l0.291016,0.402344
		c-0.892578,1.047852-2.380859,2.675781-2.380859,6.673828C1.322266,30.820312,2.998047,32.698242,3.703125,33.572266z"/>
	<path d="M23.327148,26.511719c0,4.430664-2.599609,6.613281-3.414062,7.382812l-0.290039-0.322266
		c0.785156-0.97168,2.380859-2.829102,2.380859-7.078125c0-3.998047-1.537109-5.691406-2.380859-6.673828l0.290039-0.398438
		C20.790039,20.203125,23.327148,22.25293,23.327148,26.511719z"/>
	<path d="M5.50293,27.668945v-2.020508h12.320312v2.020508H5.50293z"/>
</g>
</svg>
