<?xml version="1.0" encoding="utf-8"?>
<!-- Generator: Adobe Illustrator 16.0.0, SVG Export Plug-In . SVG Version: 6.00 Build 0)  -->
<!DOCTYPE svg PUBLIC "-//W3C//DTD SVG 1.1 Tiny//EN" "http://www.w3.org/Graphics/SVG/1.1/DTD/svg11-tiny.dtd">
<svg version="1.1" baseProfile="tiny" id="Layer_1" xmlns="http://www.w3.org/2000/svg" xmlns:xlink="http://www.w3.org/1999/xlink"
	 x="0px" y="0px" width="22.052734px" height="32.962891px" viewBox="0 0 22.052734 32.962891" xml:space="preserve">
<g>
	<path d="M3.500977,23.091797l-0.275391,0.308594c-1.191406-1.12207-1.657227-1.689453-2.166016-2.664062
		C0.361328,19.427734,0,17.960938,0,16.400391c0-4.009766,2.397461-5.947266,3.225586-6.689453l0.275391,0.379883
		C2.657227,11.082031,1.25,12.621094,1.25,16.400391C1.25,20.490234,2.833984,22.265625,3.500977,23.091797z"/>
	<path d="M22.052734,16.416992c0,4.188477-2.458008,6.251953-3.227539,6.979492l-0.274414-0.304688
		c0.742188-0.918945,2.250977-2.674805,2.250977-6.691406c0-3.779297-1.453125-5.380859-2.250977-6.30957l0.274414-0.375977
		C19.654297,10.453125,22.052734,12.390625,22.052734,16.416992z"/>
	<path d="M5.202148,17.510742v-1.910156h11.647461v1.910156H5.202148z"/>
</g>
</svg>
