<?xml version="1.0" encoding="utf-8"?>
<!-- Generator: Adobe Illustrator 16.0.0, SVG Export Plug-In . SVG Version: 6.00 Build 0)  -->
<!DOCTYPE svg PUBLIC "-//W3C//DTD SVG 1.1 Tiny//EN" "http://www.w3.org/Graphics/SVG/1.1/DTD/svg11-tiny.dtd">
<svg version="1.1" baseProfile="tiny" id="Layer_1" xmlns="http://www.w3.org/2000/svg" xmlns:xlink="http://www.w3.org/1999/xlink"
	 x="0px" y="0px" width="19.75293px" height="32.962891px" viewBox="0 0 19.75293 32.962891" xml:space="preserve">
<path d="M14.331055,10.670898H6.870117c-0.133789,4.307617-0.330078,8.680664-0.920898,12.887695
	c-0.492188,0.391602-1.610352,0.621094-2.235352,0.819336l-0.361328-0.327148
	c1.314453-4.308594,1.708984-8.811523,2.201172-13.379883H4.797852c-2.464844,0-3.1875,0.328125-4.240234,2.401367
	l-0.198242,0.130859l-0.295898-0.164062L0,12.80957c0.328125-1.612305,0.359375-4.174805,2.49707-4.143555
	c2.793945,0.033203,5.62207,0.098633,8.448242,0.098633c2.333984,0,4.635742-0.06543,6.935547-0.129883
	c-0.09668,0.492188-0.195312,1.048828-0.195312,1.610352l-1.973633,0.425781c-0.984375,2.368164-1.412109,5.0625-0.953125,7.855469
	c0.198242,1.349609,0.822266,4.078125,2.661133,4.078125c0.757812,0,1.348633-0.460938,1.874023-0.823242l0.229492,0.033203
	l0.229492,0.295898l-0.0625,0.196289c-0.853516,0.855469-2.366211,2.170898-3.71582,2.170898
	C12.6875,24.477539,11.143555,17.442383,14.331055,10.670898z"/>
</svg>
