<?xml version="1.0" encoding="utf-8"?>
<!-- Generator: Adobe Illustrator 16.0.0, SVG Export Plug-In . SVG Version: 6.00 Build 0)  -->
<!DOCTYPE svg PUBLIC "-//W3C//DTD SVG 1.1 Tiny//EN" "http://www.w3.org/Graphics/SVG/1.1/DTD/svg11-tiny.dtd">
<svg version="1.1" baseProfile="tiny" id="Layer_1" xmlns="http://www.w3.org/2000/svg" xmlns:xlink="http://www.w3.org/1999/xlink"
	 x="0px" y="0px" width="20.828125px" height="44.013672px" viewBox="0 0 20.828125 44.013672" xml:space="preserve">
<path d="M15.15918,20.433594H7.266602C7.125,24.990234,6.917969,29.616211,6.292969,34.066406
	c-0.520508,0.414062-1.704102,0.65625-2.365234,0.866211l-0.381836-0.345703c1.390625-4.557617,1.807617-9.321289,2.328125-14.15332
	H5.075195c-2.607422,0-3.37207,0.34668-4.485352,2.540039l-0.209961,0.138672l-0.313477-0.173828L0,22.696289
	c0.34668-1.706055,0.379883-4.416992,2.640625-4.383789c2.956055,0.035156,5.947266,0.104492,8.936523,0.104492
	c2.46875,0,4.904297-0.069336,7.336914-0.137695c-0.102539,0.521484-0.207031,1.110352-0.207031,1.704102l-2.087891,0.450195
	c-1.041016,2.504883-1.493164,5.355469-1.007812,8.30957c0.209961,1.427734,0.870117,4.313477,2.81543,4.313477
	c0.800781,0,1.425781-0.487305,1.981445-0.871094l0.243164,0.035156l0.243164,0.313477l-0.066406,0.208008
	c-0.90332,0.904297-2.50293,2.295898-3.930664,2.295898C13.419922,35.038086,11.787109,27.59668,15.15918,20.433594z"/>
</svg>
