<?xml version="1.0" encoding="utf-8"?>
<!-- Generator: Adobe Illustrator 16.0.0, SVG Export Plug-In . SVG Version: 6.00 Build 0)  -->
<!DOCTYPE svg PUBLIC "-//W3C//DTD SVG 1.1 Tiny//EN" "http://www.w3.org/Graphics/SVG/1.1/DTD/svg11-tiny.dtd">
<svg version="1.1" baseProfile="tiny" id="Layer_1" xmlns="http://www.w3.org/2000/svg" xmlns:xlink="http://www.w3.org/1999/xlink"
	 x="0px" y="0px" width="35.712891px" height="44.013672px" viewBox="0 0 35.712891 44.013672" xml:space="preserve">
<g>
	<path d="M16.883789,31.789062l0.693359-0.106445l0.382812,0.973633c0.072266,0.176758,0.452148,0.314453,0.974609,0.314453
		c0.973633,0,2.158203-1.113281,3.652344-3.443359l1.389648-2.154297l-0.381836-2.157227
		c-0.592773-3.40918-1.356445-4.833008-2.501953-4.833008c-0.664062,0-1.357422,0.487305-2.402344,1.666016l-0.588867-0.34375
		l2.015625-2.887695c0.311523-0.454102,1.080078-0.731445,1.983398-0.731445c2.049805,0,2.989258,1.251953,3.405273,4.693359
		l0.209961,1.672852l1.287109-1.915039c2.155273-3.199219,3.546875-4.451172,4.9375-4.451172
		c0.313477,0,0.628906,0.108398,1.043945,0.350586l-0.520508,2.955078l-0.486328,0.136719
		c-0.176758-0.520508-0.592773-0.797852-1.149414-0.797852c-1.077148,0-2.016602,0.797852-3.652344,3.057617l-1.217773,1.705078
		l0.626953,3.510742c0.174805,1.010742,0.558594,2.298828,0.869141,2.955078c0.34668,0.697266,0.801758,1.044922,1.324219,1.044922
		c0.553711,0,1.423828-0.520508,2.678711-1.56543l0.310547,0.662109L30.0625,33.630859
		c-1.111328,1.006836-2.226562,1.599609-2.992188,1.599609c-1.250977,0-2.051758-1.356445-2.500977-4.3125l-0.382812-2.399414
		l-2.645508,4.069336c-1.075195,1.633789-2.431641,2.642578-3.581055,2.642578c-0.415039,0-0.97168-0.138672-1.494141-0.416016
		C16.604492,33.907227,16.883789,33.003906,16.883789,31.789062z"/>
	<polygon points="35.712891,12.410156 35.712891,13.304688 14.257812,13.304688 7.996094,35.038086 2.487305,23.504883 
		0.257812,24.341797 0,23.905273 4.018555,21.755859 8.133789,30.482422 13.303711,12.410156 	"/>
</g>
</svg>
