<?xml version="1.0" encoding="utf-8"?>
<!-- Generator: Adobe Illustrator 16.0.0, SVG Export Plug-In . SVG Version: 6.00 Build 0)  -->
<!DOCTYPE svg PUBLIC "-//W3C//DTD SVG 1.1 Tiny//EN" "http://www.w3.org/Graphics/SVG/1.1/DTD/svg11-tiny.dtd">
<svg version="1.1" baseProfile="tiny" id="Layer_1" xmlns="http://www.w3.org/2000/svg" xmlns:xlink="http://www.w3.org/1999/xlink"
	 x="0px" y="0px" width="33.761719px" height="32.962891px" viewBox="0 0 33.761719 32.962891" xml:space="preserve">
<g>
	<path d="M15.960938,21.40625l0.65625-0.100586l0.361328,0.919922c0.068359,0.166992,0.427734,0.297852,0.921875,0.297852
		c0.919922,0,2.040039-1.052734,3.452148-3.255859l1.314453-2.036133l-0.361328-2.040039
		c-0.560547-3.222656-1.282227-4.568359-2.365234-4.568359c-0.62793,0-1.283203,0.460938-2.271484,1.575195l-0.556641-0.325195
		l1.90625-2.730469c0.293945-0.428711,1.020508-0.691406,1.875-0.691406c1.9375,0,2.825195,1.183594,3.21875,4.4375
		l0.198242,1.581055l1.216797-1.810547c2.038086-3.024414,3.353516-4.208008,4.667969-4.208008
		c0.296875,0,0.594727,0.102539,0.987305,0.332031l-0.492188,2.792969l-0.459961,0.129883
		c-0.166992-0.492188-0.560547-0.754883-1.086914-0.754883c-1.017578,0-1.90625,0.754883-3.452148,2.890625l-1.151367,1.612305
		l0.592773,3.319336c0.165039,0.955078,0.527344,2.172852,0.821289,2.792969c0.328125,0.65918,0.757812,0.988281,1.251953,0.988281
		c0.523438,0,1.345703-0.492188,2.532227-1.480469l0.293945,0.625977l-1.612305,1.447266
		c-1.050781,0.951172-2.104492,1.511719-2.828125,1.511719c-1.182617,0-1.94043-1.282227-2.365234-4.077148l-0.361328-2.267578
		l-2.500977,3.84668c-1.016602,1.544922-2.298828,2.498047-3.385742,2.498047c-0.392578,0-0.917969-0.130859-1.412109-0.393555
		C15.697266,23.408203,15.960938,22.554688,15.960938,21.40625z"/>
	<polygon points="33.761719,3.085938 33.761719,3.931641 13.478516,3.931641 7.55957,24.477539 2.351562,13.574219 
		0.244141,14.365234 0,13.953125 3.798828,11.920898 7.689453,20.170898 12.577148,3.085938 	"/>
</g>
</svg>
