<?xml version="1.0" encoding="utf-8"?>
<!-- Generator: Adobe Illustrator 16.0.0, SVG Export Plug-In . SVG Version: 6.00 Build 0)  -->
<!DOCTYPE svg PUBLIC "-//W3C//DTD SVG 1.1 Tiny//EN" "http://www.w3.org/Graphics/SVG/1.1/DTD/svg11-tiny.dtd">
<svg version="1.1" baseProfile="tiny" id="Layer_1" xmlns="http://www.w3.org/2000/svg" xmlns:xlink="http://www.w3.org/1999/xlink"
	 x="0px" y="0px" width="25.770508px" height="44.013672px" viewBox="0 0 25.770508 44.013672" xml:space="preserve">
<g>
	<g>
		<path d="M0.418945,31.789062l0.694336-0.106445l0.382812,0.973633c0.070312,0.176758,0.452148,0.314453,0.972656,0.314453
			c0.975586,0,2.158203-1.113281,3.65332-3.443359l1.390625-2.154297L7.130859,25.21582
			c-0.592773-3.40918-1.358398-4.833008-2.503906-4.833008c-0.662109,0-1.356445,0.487305-2.401367,1.666016l-0.588867-0.34375
			l2.016602-2.887695c0.311523-0.454102,1.078125-0.731445,1.981445-0.731445c2.049805,0,2.989258,1.251953,3.407227,4.693359
			l0.208984,1.672852l1.287109-1.915039c2.15625-3.199219,3.547852-4.451172,4.936523-4.451172
			c0.314453,0,0.628906,0.108398,1.044922,0.350586l-0.520508,2.955078l-0.487305,0.136719
			c-0.174805-0.520508-0.59082-0.797852-1.148438-0.797852c-1.076172,0-2.015625,0.797852-3.651367,3.057617l-1.217773,1.705078
			l0.625,3.510742c0.176758,1.010742,0.557617,2.298828,0.871094,2.955078c0.34668,0.697266,0.798828,1.044922,1.322266,1.044922
			c0.555664,0,1.422852-0.520508,2.678711-1.56543l0.311523,0.662109l-1.704102,1.530273
			c-1.114258,1.006836-2.228516,1.599609-2.992188,1.599609c-1.250977,0-2.052734-1.356445-2.50293-4.3125l-0.382812-2.399414
			l-2.643555,4.069336c-1.076172,1.633789-2.431641,2.642578-3.581055,2.642578c-0.416016,0-0.97168-0.138672-1.496094-0.416016
			C0.138672,33.907227,0.418945,33.003906,0.418945,31.789062z"/>
	</g>
	<path d="M18.634766,23.295898v-0.43457c0.160156-0.201172,0.449219-0.516602,0.866211-0.945312l1.725586-1.796875
		c0.133789-0.139648,0.461914-0.50293,0.982422-1.091797c0.391602-0.450195,0.698242-0.859375,0.920898-1.228516
		c0.22168-0.370117,0.383789-0.728516,0.487305-1.077148c0.102539-0.348633,0.154297-0.679688,0.154297-0.996094
		c0-0.536133-0.149414-1.000977-0.448242-1.394531c-0.386719-0.520508-0.949219-0.782227-1.686523-0.782227
		c-0.412109,0-0.772461,0.067383-1.082031,0.202148c-0.30957,0.133789-0.517578,0.282227-0.62207,0.445312
		c-0.106445,0.163086-0.262695,0.628906-0.46875,1.398438h-0.464844c0.124023-0.692383,0.211914-1.405273,0.263672-2.138672
		c0.325195-0.30957,0.597656-0.532227,0.817383-0.666016c0.219727-0.134766,0.489258-0.242188,0.80957-0.321289
		c0.320312-0.081055,0.668945-0.121094,1.045898-0.121094c0.676758,0,1.24707,0.116211,1.711914,0.344727
		c0.464844,0.230469,0.836914,0.572266,1.116211,1.027344c0.27832,0.454102,0.417969,0.96875,0.417969,1.541016
		c0,0.620117-0.158203,1.231445-0.476562,1.833008c-0.317383,0.601562-0.977539,1.401367-1.979492,2.398438l-1.326172,1.31543
		c-0.480469,0.481445-0.845703,0.864258-1.09375,1.147461h3.40332c0.681641,0,1.350586-0.033203,2.007812-0.100586
		l0.053711,0.061523c-0.025391,0.196289-0.039062,0.426758-0.039062,0.689453c0,0.238281,0.013672,0.44043,0.039062,0.605469
		l-0.053711,0.084961c-0.367188-0.021484-0.785156-0.036133-1.255859-0.046875
		c-1.053711-0.020508-1.757812-0.03125-2.114258-0.03125c-0.450195,0-1.206055,0.010742-2.270508,0.03125
		C19.492188,23.259766,19.012695,23.274414,18.634766,23.295898z"/>
</g>
</svg>
