<?xml version="1.0" encoding="utf-8"?>
<!-- Generator: Adobe Illustrator 16.0.0, SVG Export Plug-In . SVG Version: 6.00 Build 0)  -->
<!DOCTYPE svg PUBLIC "-//W3C//DTD SVG 1.1 Tiny//EN" "http://www.w3.org/Graphics/SVG/1.1/DTD/svg11-tiny.dtd">
<svg version="1.1" baseProfile="tiny" id="Layer_1" xmlns="http://www.w3.org/2000/svg" xmlns:xlink="http://www.w3.org/1999/xlink"
	 x="0px" y="0px" width="24.362793px" height="32.962891px" viewBox="0 0 24.362793 32.962891" xml:space="preserve">
<g>
	<g>
		<path d="M0.396484,21.40625l0.65625-0.100586l0.361328,0.919922c0.066406,0.166992,0.427734,0.297852,0.919922,0.297852
			c0.921875,0,2.040039-1.052734,3.454102-3.255859l1.314453-2.036133l-0.361328-2.040039
			c-0.560547-3.222656-1.28418-4.568359-2.367188-4.568359c-0.625977,0-1.282227,0.460938-2.269531,1.575195l-0.556641-0.325195
			l1.90625-2.730469c0.293945-0.428711,1.018555-0.691406,1.873047-0.691406c1.9375,0,2.826172,1.183594,3.220703,4.4375
			l0.198242,1.581055l1.216797-1.810547c2.038086-3.024414,3.353516-4.208008,4.666016-4.208008
			c0.297852,0,0.594727,0.102539,0.988281,0.332031L15.125,11.576172l-0.460938,0.129883
			c-0.165039-0.492188-0.558594-0.754883-1.084961-0.754883c-1.017578,0-1.90625,0.754883-3.452148,2.890625l-1.151367,1.612305
			l0.59082,3.319336c0.166992,0.955078,0.527344,2.172852,0.823242,2.792969c0.328125,0.65918,0.755859,0.988281,1.25,0.988281
			c0.525391,0,1.345703-0.492188,2.532227-1.480469l0.294922,0.625977l-1.611328,1.447266
			c-1.052734,0.951172-2.106445,1.511719-2.828125,1.511719c-1.182617,0-1.94043-1.282227-2.366211-4.077148l-0.362305-2.267578
			l-2.499023,3.84668c-1.017578,1.544922-2.298828,2.498047-3.385742,2.498047c-0.392578,0-0.917969-0.130859-1.414062-0.393555
			C0.130859,23.408203,0.396484,22.554688,0.396484,21.40625z"/>
	</g>
	<path d="M17.617188,13.376465v-0.410156c0.150879-0.19043,0.424316-0.488281,0.818848-0.893555l1.630859-1.699219
		c0.126953-0.131836,0.436523-0.475586,0.928711-1.032227c0.370605-0.425781,0.660645-0.8125,0.870605-1.161133
		c0.209473-0.349609,0.363281-0.688477,0.460449-1.018555c0.097656-0.329102,0.146484-0.642578,0.146484-0.941406
		c0-0.506836-0.141602-0.946289-0.424316-1.318359c-0.365234-0.492188-0.896973-0.739258-1.59375-0.739258
		c-0.390137,0-0.730957,0.063477-1.023438,0.19043s-0.48877,0.267578-0.588379,0.420898
		c-0.100098,0.154297-0.247559,0.594727-0.442383,1.322266h-0.439453c0.117188-0.654297,0.200195-1.328125,0.249023-2.021484
		c0.307617-0.292969,0.564941-0.50293,0.772949-0.629883c0.207031-0.126953,0.462402-0.228516,0.765137-0.303711
		c0.302734-0.076172,0.632324-0.114258,0.98877-0.114258c0.639648,0,1.179199,0.109375,1.618652,0.326172
		c0.439453,0.217773,0.791016,0.541016,1.054688,0.970703s0.395508,0.916016,0.395508,1.457031
		c0,0.585938-0.149902,1.164062-0.450684,1.732422c-0.299805,0.569336-0.923828,1.325195-1.871094,2.267578l-1.253906,1.244141
		c-0.45459,0.455078-0.799316,0.816406-1.033691,1.083984h3.216797c0.64502,0,1.277344-0.03125,1.897949-0.094727l0.05127,0.058594
		c-0.024414,0.185547-0.036621,0.40332-0.036621,0.651367c0,0.225586,0.012207,0.416016,0.036621,0.572266l-0.05127,0.080078
		c-0.34668-0.019531-0.742188-0.03418-1.186523-0.043945c-0.996094-0.019531-1.662598-0.029297-1.999512-0.029297
		c-0.424805,0-1.140137,0.009766-2.145996,0.029297C18.427734,13.342285,17.973633,13.356934,17.617188,13.376465z"/>
</g>
</svg>
