<?xml version="1.0" encoding="utf-8"?>
<!-- Generator: Adobe Illustrator 16.0.0, SVG Export Plug-In . SVG Version: 6.00 Build 0)  -->
<!DOCTYPE svg PUBLIC "-//W3C//DTD SVG 1.1 Tiny//EN" "http://www.w3.org/Graphics/SVG/1.1/DTD/svg11-tiny.dtd">
<svg version="1.1" baseProfile="tiny" id="Layer_1" xmlns="http://www.w3.org/2000/svg" xmlns:xlink="http://www.w3.org/1999/xlink"
	 x="0px" y="0px" width="25.711914px" height="23.601074px" viewBox="0 0 25.711914 23.601074" xml:space="preserve">
<g>
	<path d="M0.396484,19.379395l0.65625-0.100586l0.361328,0.919922c0.066406,0.166992,0.427734,0.297852,0.919922,0.297852
		c0.921875,0,2.040039-1.052734,3.454102-3.255859l1.314453-2.036133l-0.361328-2.040039
		c-0.560547-3.222656-1.28418-4.568359-2.367188-4.568359c-0.625977,0-1.282227,0.460938-2.269531,1.575195L1.547852,9.846191
		l1.90625-2.730469c0.293945-0.428711,1.018555-0.691406,1.873047-0.691406c1.9375,0,2.826172,1.183594,3.220703,4.4375
		l0.198242,1.581055l1.216797-1.810547c2.038086-3.024414,3.353516-4.208008,4.666016-4.208008
		c0.297852,0,0.594727,0.102539,0.988281,0.332031L15.125,9.549316l-0.460938,0.129883
		c-0.165039-0.492188-0.558594-0.754883-1.084961-0.754883c-1.017578,0-1.90625,0.754883-3.452148,2.890625l-1.151367,1.612305
		l0.59082,3.319336c0.166992,0.955078,0.527344,2.172852,0.823242,2.792969c0.328125,0.65918,0.755859,0.988281,1.25,0.988281
		c0.525391,0,1.345703-0.492188,2.532227-1.480469l0.294922,0.625977l-1.611328,1.447266
		c-1.052734,0.951172-2.106445,1.511719-2.828125,1.511719c-1.182617,0-1.94043-1.282227-2.366211-4.077148l-0.362305-2.267578
		l-2.499023,3.84668c-1.017578,1.544922-2.298828,2.498047-3.385742,2.498047c-0.392578,0-0.917969-0.130859-1.414062-0.393555
		C0.130859,21.381348,0.396484,20.527832,0.396484,19.379395z"/>
	<path d="M25.711914,10.851074c-2.014648-0.027832-3.05957-0.054688-3.686523-0.054688c-0.547852,0-0.837891,0-3.581055,0.054688
		V10.32666l2.692383-2.822754c1.751953-1.831543,2.405273-2.954102,2.405273-4.106445
		c0-1.253906-0.811523-2.039062-2.117188-2.039062c-1.021484,0-1.543945,0.365723-1.77832,1.205566L19.40918,3.34668h-0.625
		l0.287109-2.222656C19.880859,0.31543,20.666992,0,21.84082,0c2.039062,0,3.296875,1.150391,3.296875,2.955078
		c0,1.173828-0.470703,2.038574-2.015625,3.65918l-2.71875,2.82373c2.956055-0.078125,3.138672-0.078125,5.308594-0.157227
		c-0.024414,0.157227-0.051758,0.314941-0.051758,0.78418C25.660156,10.61377,25.6875,10.666992,25.711914,10.851074z"/>
</g>
</svg>
