<?xml version="1.0" encoding="utf-8"?>
<!-- Generator: Adobe Illustrator 16.0.0, SVG Export Plug-In . SVG Version: 6.00 Build 0)  -->
<!DOCTYPE svg PUBLIC "-//W3C//DTD SVG 1.1 Tiny//EN" "http://www.w3.org/Graphics/SVG/1.1/DTD/svg11-tiny.dtd">
<svg version="1.1" baseProfile="tiny" id="Layer_1" xmlns="http://www.w3.org/2000/svg" xmlns:xlink="http://www.w3.org/1999/xlink"
	 x="0px" y="0px" width="33.896484px" height="32.962891px" viewBox="0 0 33.896484 32.962891" xml:space="preserve">
<g>
	<path d="M15.391602,29.820312l1.595703-1.078125l0.337891,0.111328c-0.021484,0.205078-0.032227,0.371094-0.032227,0.5
		c0,0.666016,0.206055,1.212891,0.620117,1.644531c0.414062,0.427734,0.916016,0.644531,1.506836,0.644531
		c0.386719,0,0.791992-0.099609,1.21582-0.298828c0.424805-0.199219,0.808594-0.501953,1.152344-0.910156
		c0.461914-0.537109,0.966797-1.416016,1.515625-2.634766c0.546875-1.21875,1.164062-2.978516,1.852539-5.277344l1.246094-4.478516
		c-0.783203,1.191406-1.583008,2.228516-2.397461,3.109375c-1.40625,1.546875-2.336914,2.457031-2.792969,2.730469
		s-0.833984,0.412109-1.134766,0.412109c-0.34375,0-0.632812-0.177734-0.869141-0.533203
		c-0.375-0.537109-0.5625-1.320312-0.5625-2.351562c0-0.408203,0.074219-1.267578,0.224609-2.578125
		c0.257812-2.353516,0.386719-4.425781,0.386719-6.220703c0-0.71875-0.037109-1.240234-0.112305-1.5625
		c-0.042969-0.203125-0.118164-0.353516-0.225586-0.451172c-0.075195-0.064453-0.166016-0.095703-0.273438-0.095703
		c-0.322266,0-1,0.396484-2.03125,1.191406c-0.181641,0.140625-0.316406,0.236328-0.402344,0.291016l-0.435547-0.580078
		c1.257812-1.074219,2.417969-1.944824,3.480469-2.611816c0.601562-0.375,1.080078-0.563477,1.43457-0.563477
		c0.311523,0,0.561523,0.134766,0.749023,0.40332s0.282227,0.817383,0.282227,1.64502
		c0,0.699219-0.09668,2.173828-0.290039,4.419922c-0.236328,2.636719-0.354492,4.544922-0.354492,5.728516
		c0,0.548828,0.063477,0.919922,0.192383,1.113281c0.107422,0.138672,0.251953,0.208984,0.433594,0.208984
		c0.182617,0,0.365234-0.048828,0.546875-0.144531c0.407227-0.226562,0.891602-0.628906,1.454102-1.210938
		c0.5625-0.580078,1.094727-1.248047,1.598633-2c0.835938-1.226562,1.542969-2.646484,2.121094-4.259766
		c0.365234-0.978516,0.853516-2.753906,1.466797-5.32373c0.634766-0.09668,1.445312-0.300781,2.43457-0.612305l0.354492,0.322266
		c-0.300781,0.633789-0.595703,1.380859-0.886719,2.240723c-0.503906,1.460938-1.197266,3.705078-2.078125,6.734375
		c-0.708984,2.460938-1.240234,4.205078-1.595703,5.236328c-0.654297,1.976562-1.333984,3.587891-2.037109,4.833984
		s-1.560547,2.353516-2.569336,3.320312c-0.75293,0.730469-1.506836,1.259766-2.264648,1.585938
		c-0.756836,0.328125-1.473633,0.492188-2.150391,0.492188c-0.472656,0-0.94043-0.115234-1.402344-0.345703
		c-0.461914-0.232422-0.808594-0.548828-1.039062-0.951172s-0.345703-0.835938-0.345703-1.296875
		C15.311523,30.207031,15.337891,30.025391,15.391602,29.820312z"/>
	<g>
		<polygon points="33.896484,3.085938 33.896484,3.931641 13.613281,3.931641 7.694336,24.477539 2.486328,13.574219 
			0.378906,14.365234 0.134766,13.953125 3.933594,11.920898 7.824219,20.170898 12.711914,3.085938 		"/>
	</g>
	<g>
		<path d="M0,9.985352l0.195312-1.025391c0.027344-0.216797,0.046875-0.476562,0.060547-0.779297L0.65625,8.110352l0.236328,0.59375
			C1.076172,8.821289,1.240234,8.87793,1.384766,8.87793c0.238281,0,0.451172-0.056641,0.634766-0.173828
			c0.314453-0.189453,0.697266-0.580078,1.148438-1.166016c0.232422-0.300781,0.669922-0.970703,1.3125-2.006836
			C4.193359,3.536133,3.882812,2.279297,3.547852,1.761719c-0.164062-0.251953-0.389648-0.37793-0.676758-0.37793
			c-0.198242,0-0.384766,0.041992-0.558594,0.126953C2.137695,1.595703,1.904297,1.790039,1.609375,2.09375L1.34375,2.357422
			L0.974609,2.142578l1.230469-1.753906c0.177734-0.123047,0.367188-0.212891,0.568359-0.271484
			C2.974609,0.05957,3.189453,0.030273,3.414062,0.030273c0.669922,0,1.175781,0.303711,1.517578,0.912109
			c0.253906,0.450195,0.458984,1.40625,0.615234,2.868164l1.148438-1.736328c0.341797-0.5,0.708008-0.941406,1.097656-1.325195
			C8.080078,0.461914,8.34375,0.264648,8.582031,0.15918C8.822266,0.052734,9.043945,0,9.249023,0
			c0.211914,0,0.423828,0.057617,0.635742,0.173828c-0.116211,0.553711-0.222656,1.148438-0.318359,1.78418L9.290039,2.019531
			C9.1875,1.834961,9.089844,1.711914,8.998047,1.650391S8.785156,1.558594,8.634766,1.558594
			c-0.226562,0-0.441406,0.054688-0.646484,0.164062C7.708984,1.879883,7.401367,2.154297,7.066406,2.544922
			c-0.21875,0.253906-0.675781,0.880859-1.373047,1.881836c0.232422,1.405273,0.402344,2.333984,0.511719,2.785156
			C6.390625,7.946289,6.601562,8.44043,6.84082,8.694336c0.150391,0.15625,0.321289,0.236328,0.512695,0.236328
			s0.390625-0.046875,0.599609-0.140625c0.207031-0.09375,0.543945-0.314453,1.008789-0.660156l0.235352,0.369141
			c-0.847656,0.738281-1.53418,1.253906-2.060547,1.548828c-0.25293,0.142578-0.505859,0.214844-0.758789,0.214844
			c-0.444336,0-0.795898-0.271484-1.055664-0.8125C5.0625,8.907227,4.830078,7.836914,4.625,6.237305
			C3.496094,8.116211,2.615234,9.313477,1.978516,9.833008c-0.347656,0.287109-0.727539,0.429688-1.137695,0.429688
			C0.519531,10.262695,0.239258,10.170898,0,9.985352z"/>
	</g>
</g>
</svg>
