<?xml version="1.0" encoding="utf-8"?>
<!-- Generator: Adobe Illustrator 16.0.0, SVG Export Plug-In . SVG Version: 6.00 Build 0)  -->
<!DOCTYPE svg PUBLIC "-//W3C//DTD SVG 1.1 Tiny//EN" "http://www.w3.org/Graphics/SVG/1.1/DTD/svg11-tiny.dtd">
<svg version="1.1" baseProfile="tiny" id="Layer_1" xmlns="http://www.w3.org/2000/svg" xmlns:xlink="http://www.w3.org/1999/xlink"
	 x="0px" y="0px" width="35.855469px" height="44.013672px" viewBox="0 0 35.855469 44.013672" xml:space="preserve">
<g>
	<path d="M16.280273,40.689453l1.688477-1.140625l0.357422,0.118164c-0.022461,0.216797-0.03418,0.392578-0.03418,0.529297
		c0,0.704102,0.217773,1.282227,0.65625,1.739258c0.4375,0.452148,0.96875,0.681641,1.59375,0.681641
		c0.40918,0,0.837891-0.105469,1.286133-0.316406c0.449219-0.209961,0.855469-0.530273,1.21875-0.961914
		c0.488281-0.568359,1.022461-1.498047,1.603516-2.787109c0.578125-1.290039,1.231445-3.151367,1.958984-5.583008l1.318359-4.737305
		c-0.828125,1.260742-1.674805,2.357422-2.536133,3.289062c-1.487305,1.636719-2.47168,2.599609-2.954102,2.888672
		s-0.881836,0.435547-1.200195,0.435547c-0.364258,0-0.669922-0.1875-0.919922-0.563477
		c-0.396484-0.568359-0.594727-1.396484-0.594727-2.487305c0-0.432617,0.078125-1.34082,0.237305-2.727539
		c0.273438-2.489258,0.40918-4.681641,0.40918-6.580078c0-0.760742-0.039062-1.3125-0.118164-1.65332
		c-0.045898-0.214844-0.125-0.374023-0.239258-0.476562c-0.079102-0.068359-0.175781-0.101562-0.289062-0.101562
		c-0.34082,0-1.057617,0.418945-2.148438,1.260742c-0.192383,0.148438-0.334961,0.249023-0.425781,0.307617L16.6875,21.208984
		c1.331055-1.135742,2.557617-2.056641,3.681641-2.762695c0.636719-0.396484,1.142578-0.595703,1.517578-0.595703
		c0.330078,0,0.59375,0.142578,0.791992,0.426758s0.298828,0.864258,0.298828,1.740234
		c0,0.739258-0.102539,2.298828-0.306641,4.674805c-0.25,2.789062-0.375,4.807617-0.375,6.05957
		c0,0.581055,0.067383,0.973633,0.203125,1.177734c0.114258,0.146484,0.266602,0.22168,0.458984,0.22168
		c0.193359,0,0.386719-0.051758,0.578125-0.15332c0.430664-0.239258,0.943359-0.665039,1.538086-1.28125
		c0.595703-0.613281,1.158203-1.320312,1.691406-2.115234c0.883789-1.297852,1.631836-2.799805,2.244141-4.505859
		c0.385742-1.035156,0.902344-2.913086,1.550781-5.631836c0.671875-0.101562,1.529297-0.317383,2.575195-0.647461l0.375,0.34082
		c-0.317383,0.670898-0.629883,1.460938-0.9375,2.370117c-0.533203,1.545898-1.266602,3.919922-2.198242,7.124023
		c-0.75,2.602539-1.311523,4.448242-1.6875,5.539062c-0.692383,2.09082-1.411133,3.794922-2.155273,5.113281
		c-0.744141,1.317383-1.650391,2.489258-2.717773,3.511719c-0.796875,0.772461-1.59375,1.333008-2.395508,1.677734
		c-0.800781,0.347656-1.558594,0.520508-2.274414,0.520508c-0.5,0-0.995117-0.12207-1.483398-0.365234
		c-0.489258-0.246094-0.855469-0.581055-1.099609-1.006836c-0.243164-0.424805-0.365234-0.883789-0.365234-1.371094
		C16.196289,41.098633,16.223633,40.90625,16.280273,40.689453z"/>
	<g>
		<polygon points="35.855469,12.410156 35.855469,13.304688 14.399414,13.304688 8.138672,35.038086 2.629883,23.504883 
			0.400391,24.341797 0.142578,23.905273 4.160156,21.755859 8.276367,30.482422 13.446289,12.410156 		"/>
	</g>
	<g>
		<path d="M0,19.708008l0.206055-1.083984c0.029297-0.229492,0.049805-0.503906,0.064453-0.824219l0.422852-0.075195l0.25,0.628906
			c0.194336,0.124023,0.368164,0.183594,0.521484,0.183594c0.251953,0,0.476562-0.05957,0.670898-0.183594
			c0.333008-0.201172,0.737305-0.614258,1.214844-1.233398c0.246094-0.318359,0.708984-1.027344,1.388672-2.123047
			c-0.303711-2.110352-0.632812-3.44043-0.986328-3.987305c-0.173828-0.266602-0.413086-0.400391-0.716797-0.400391
			c-0.208984,0-0.40625,0.044922-0.59082,0.134766s-0.431641,0.294922-0.743164,0.616211l-0.28125,0.279297l-0.390625-0.227539
			l1.301758-1.854492c0.188477-0.130859,0.388672-0.225586,0.601562-0.288086
			c0.212891-0.060547,0.439453-0.091797,0.677734-0.091797c0.708008,0,1.243164,0.321289,1.604492,0.964844
			c0.268555,0.476562,0.486328,1.487305,0.651367,3.03418l1.214844-1.836914c0.361328-0.52832,0.749023-0.995117,1.161133-1.401367
			c0.303711-0.303711,0.582031-0.512695,0.833984-0.624023c0.254883-0.112305,0.489258-0.167969,0.706055-0.167969
			c0.223633,0,0.448242,0.060547,0.672852,0.183594c-0.123047,0.585938-0.236328,1.214844-0.336914,1.886719l-0.292969,0.06543
			c-0.108398-0.195312-0.211914-0.325195-0.308594-0.390625c-0.09668-0.064453-0.225586-0.09668-0.383789-0.09668
			c-0.240234,0-0.467773,0.057617-0.68457,0.172852c-0.294922,0.166992-0.620117,0.457031-0.974609,0.870117
			c-0.231445,0.268555-0.714844,0.931641-1.453125,1.990234c0.246094,1.487305,0.425781,2.469727,0.541992,2.946289
			c0.196289,0.777344,0.418945,1.299805,0.671875,1.568359c0.15918,0.165039,0.339844,0.25,0.542969,0.25
			c0.202148,0,0.413086-0.049805,0.633789-0.148438c0.21875-0.099609,0.575195-0.333008,1.067383-0.698242l0.249023,0.389648
			c-0.896484,0.78125-1.623047,1.327148-2.179688,1.638672c-0.267578,0.151367-0.535156,0.227539-0.802734,0.227539
			c-0.469727,0-0.841797-0.287109-1.116211-0.859375c-0.275391-0.574219-0.521484-1.707031-0.738281-3.398438
			c-1.194336,1.987305-2.125977,3.253906-2.798828,3.802734c-0.368164,0.303711-0.769531,0.455078-1.204102,0.455078
			C0.548828,20.001953,0.25293,19.904297,0,19.708008z"/>
	</g>
</g>
</svg>
